<svg width="1024" height="1024" viewBox="0 0 1024 1024" fill="none" xmlns="http://www.w3.org/2000/svg">
<rect width="1024" height="1024" fill="black"/>
<path d="M339.012 751.761C339.012 735.613 352.101 722.522 368.247 722.522H660.6C676.746 722.522 689.835 735.613 689.835 751.761C689.835 767.909 676.746 781 660.6 781H368.247C352.101 781 339.012 767.909 339.012 751.761Z" fill="white"/>
<path d="M309.776 675.739C309.776 659.591 322.866 646.5 339.012 646.5H689.835C705.982 646.5 719.071 659.591 719.071 675.739C719.071 691.887 705.982 704.978 689.835 704.978H339.012C322.866 704.978 309.776 691.887 309.776 675.739Z" fill="white"/>
<path d="M263 592.863C263 573.485 278.707 557.776 298.082 557.776H724.918C744.293 557.776 760 573.485 760 592.863C760 612.241 744.293 627.95 724.918 627.95H298.082C278.707 627.95 263 612.241 263 592.863Z" fill="white" fill-opacity="0.8"/>
<path d="M469.311 468.557C459.416 460.253 444.664 461.544 436.361 471.441L346.159 578.953C337.856 588.849 339.147 603.604 349.042 611.908C358.937 620.212 373.689 618.921 381.992 609.024L472.194 501.512C480.497 491.616 479.206 476.861 469.311 468.557Z" fill="white" fill-opacity="0.5"/>
<path d="M381.992 609.024C390.295 599.128 389.004 584.374 379.109 576.07C369.214 567.766 354.462 569.057 346.159 578.953C337.856 588.849 339.147 603.604 349.042 611.908C358.937 620.212 373.689 618.921 381.992 609.024Z" fill="white"/>
<path d="M596.282 324.87C596.282 370.085 559.633 406.739 514.424 406.739C469.214 406.739 432.565 370.085 432.565 324.87C432.565 279.654 469.214 243 514.424 243C559.633 243 596.282 279.654 596.282 324.87Z" fill="#007AFF"/>
<path d="M551.246 292.124C552.335 292.101 553.421 292.298 554.431 292.704C555.441 293.109 556.36 293.718 557.131 294.486C558.628 295.986 559.494 298.01 559.514 300.129C559.534 302.249 558.717 304.296 557.247 305.824L514.135 359.721C513.396 360.515 512.5 361.156 511.509 361.598C510.517 362.041 509.442 362.274 508.356 362.294C507.27 362.314 506.19 362.12 505.182 361.714C504.174 361.308 503.262 360.699 502.493 359.932L473.913 331.338C472.484 329.803 471.704 327.772 471.741 325.674C471.779 323.577 472.631 321.578 474.114 320.095C475.597 318.612 477.596 317.76 479.693 317.722C481.79 317.685 483.821 318.465 485.356 319.894L507.966 342.508L545.467 294.718C546.207 293.919 547.1 293.277 548.093 292.83C549.086 292.384 550.158 292.146 551.246 292.124Z" fill="white"/>
<path d="M551.177 288.615C552.733 288.584 554.289 288.867 555.74 289.449C557.191 290.032 558.505 290.905 559.605 292.002L559.611 292.008C561.742 294.143 562.99 297.038 563.02 300.094C563.048 303.03 561.946 305.85 559.982 308.009L559.988 308.015L516.877 361.913L516.792 362.016L516.7 362.113C515.641 363.25 514.359 364.168 512.938 364.803C511.862 365.282 510.726 365.587 509.574 365.722L508.421 365.802C506.876 365.83 505.325 365.555 503.87 364.968C502.415 364.382 501.109 363.506 500.016 362.416L471.431 333.816L471.386 333.776L471.346 333.731C469.299 331.532 468.181 328.618 468.234 325.61C468.289 322.602 469.509 319.738 471.631 317.615C473.755 315.491 476.623 314.266 479.631 314.211C482.262 314.165 484.818 315.019 486.888 316.604L487.745 317.329L487.791 317.369L507.644 337.226L542.71 292.55L542.795 292.442L542.892 292.333C543.952 291.188 545.233 290.271 546.655 289.632C548.084 288.99 549.627 288.648 551.177 288.615ZM551.246 292.124C550.158 292.146 549.086 292.384 548.093 292.83L547.369 293.201C546.664 293.608 546.022 294.118 545.467 294.718L507.966 342.508L485.356 319.894C484.013 318.644 482.29 317.89 480.476 317.746L479.693 317.722C477.596 317.76 475.597 318.612 474.114 320.095L473.59 320.676C472.433 322.08 471.775 323.84 471.741 325.674C471.704 327.772 472.484 329.803 473.913 331.338L502.493 359.932C503.262 360.699 504.174 361.308 505.182 361.714C505.937 362.018 506.733 362.202 507.542 362.267L508.356 362.294C509.17 362.279 509.979 362.143 510.751 361.89L511.509 361.598C512.253 361.266 512.943 360.822 513.554 360.286L514.135 359.721L557.247 305.824C558.717 304.296 559.534 302.249 559.514 300.129C559.494 298.01 558.628 295.986 557.131 294.486C556.552 293.91 555.89 293.425 555.169 293.047L554.431 292.704C553.421 292.298 552.335 292.101 551.246 292.124Z" fill="white"/>
<path d="M565.384 468.558C555.489 476.862 554.198 491.616 562.501 501.512L652.703 609.025C661.006 618.921 675.758 620.212 685.653 611.908C695.548 603.604 696.839 588.85 688.536 578.953L598.334 471.441C590.031 461.544 575.279 460.254 565.384 468.558Z" fill="white" fill-opacity="0.5"/>
<path d="M688.536 578.953C680.233 569.057 665.48 567.766 655.585 576.07C645.69 584.374 644.4 599.128 652.703 609.025C661.006 618.921 675.758 620.212 685.653 611.908C695.548 603.604 696.839 588.85 688.536 578.953Z" fill="white"/>
</svg>
