<svg width="4073" height="963" viewBox="0 0 4073 963" fill="none" xmlns="http://www.w3.org/2000/svg">
<path d="M191.176 725.447C191.176 684.866 224.097 651.969 264.706 651.969H1000C1040.61 651.969 1073.53 684.866 1073.53 725.447C1073.53 766.028 1040.61 798.926 1000 798.926H264.706C224.097 798.926 191.176 766.028 191.176 725.447Z" fill="white"/>
<path d="M117.647 534.404C117.647 493.823 150.567 460.926 191.176 460.926H1073.53C1114.14 460.926 1147.06 493.823 1147.06 534.404C1147.06 574.985 1114.14 607.882 1073.53 607.882H191.177C150.567 607.882 117.647 574.985 117.647 534.404Z" fill="white"/>
<path d="M0 326.135C0 277.438 39.5043 237.962 88.2353 237.962H1161.76C1210.5 237.962 1250 277.438 1250 326.135C1250 374.832 1210.5 414.309 1161.76 414.309H88.2353C39.5043 414.309 0 374.832 0 326.135Z" fill="white" fill-opacity="0.8"/>
<path d="M518.891 13.7539C494.005 -7.11407 456.901 -3.87015 436.019 20.9993L209.153 291.18C188.27 316.049 191.516 353.127 216.403 373.995C241.29 394.862 278.393 391.619 299.275 366.749L526.142 96.5687C547.024 71.6993 543.778 34.6218 518.891 13.7539Z" fill="white" fill-opacity="0.5"/>
<path d="M299.275 366.749C320.158 341.88 316.912 304.802 292.025 283.935C267.139 263.067 230.035 266.31 209.153 291.18C188.27 316.049 191.516 353.127 216.403 373.995C241.29 394.862 278.393 391.619 299.275 366.749Z" fill="white"/>
<path d="M760.522 13.7544C735.636 34.6223 732.39 71.6998 753.272 96.5692L980.138 366.75C1001.02 391.619 1038.12 394.863 1063.01 373.995C1087.9 353.127 1091.14 316.05 1070.26 291.18L843.395 20.9998C822.512 -3.86966 785.409 -7.11352 760.522 13.7544Z" fill="white" fill-opacity="0.5"/>
<path d="M1070.26 291.18C1049.38 266.311 1012.27 263.067 987.387 283.935C962.501 304.803 959.256 341.88 980.138 366.75C1001.02 391.619 1038.12 394.863 1063.01 373.995C1087.9 353.127 1091.14 316.05 1070.26 291.18Z" fill="white"/>
<path d="M1918.68 435.289H1758.45C1757.32 422.032 1754.29 410.005 1749.36 399.21C1744.63 388.414 1738 379.134 1729.48 371.369C1721.14 363.414 1711.01 357.354 1699.08 353.187C1687.15 348.831 1673.61 346.653 1658.45 346.653C1631.94 346.653 1609.5 353.092 1591.13 365.971C1572.94 378.85 1559.12 397.316 1549.65 421.369C1540.37 445.422 1535.73 474.304 1535.73 508.017C1535.73 543.623 1540.46 573.452 1549.93 597.505C1559.59 621.369 1573.51 639.361 1591.69 651.482C1609.88 663.414 1631.75 669.38 1657.32 669.38C1671.9 669.38 1684.97 667.581 1696.52 663.982C1708.08 660.195 1718.11 654.797 1726.64 647.789C1735.16 640.782 1742.07 632.354 1747.38 622.505C1752.87 612.467 1756.56 601.198 1758.45 588.698L1918.68 589.835C1916.79 614.456 1909.88 639.551 1897.94 665.119C1886.01 690.498 1869.06 713.982 1847.09 735.573C1825.31 756.975 1798.32 774.21 1766.13 787.278C1733.93 800.346 1696.52 806.88 1653.91 806.88C1600.5 806.88 1552.58 795.422 1510.16 772.505C1467.92 749.589 1434.5 715.876 1409.88 671.369C1385.44 626.861 1373.23 572.411 1373.23 508.017C1373.23 443.244 1385.73 388.698 1410.73 344.38C1435.73 299.873 1469.44 266.255 1511.86 243.528C1554.29 220.611 1601.64 209.153 1653.91 209.153C1690.65 209.153 1724.46 214.172 1755.33 224.21C1786.2 234.248 1813.28 248.926 1836.58 268.244C1859.88 287.373 1878.63 310.952 1892.83 338.982C1907.03 367.013 1915.65 399.115 1918.68 435.289Z" fill="white"/>
<path d="M2114.21 805.744C2086.37 805.744 2061.75 801.198 2040.34 792.107C2019.13 782.827 2002.47 768.812 1990.34 750.062C1978.22 731.312 1972.16 707.448 1972.16 678.471C1972.16 654.607 1976.23 634.248 1984.38 617.392C1992.52 600.346 2003.89 586.426 2018.47 575.63C2033.05 564.835 2050 556.596 2069.32 550.914C2088.83 545.232 2109.85 541.539 2132.39 539.835C2156.82 537.941 2176.42 535.668 2191.2 533.017C2206.16 530.176 2216.95 526.293 2223.58 521.369C2230.21 516.255 2233.53 509.532 2233.53 501.198V500.062C2233.53 488.698 2229.17 479.986 2220.46 473.926C2211.75 467.865 2200.57 464.835 2186.93 464.835C2171.97 464.835 2159.76 468.149 2150.29 474.778C2141.01 481.217 2135.42 491.16 2133.53 504.607H1989.21C1991.1 478.092 1999.53 453.66 2014.49 431.312C2029.64 408.774 2051.71 390.782 2080.68 377.335C2109.66 363.698 2145.84 356.88 2189.21 356.88C2220.46 356.88 2248.49 360.573 2273.3 367.96C2298.11 375.157 2319.23 385.289 2336.65 398.357C2354.08 411.236 2367.33 426.388 2376.42 443.812C2385.7 461.047 2390.34 479.797 2390.34 500.062V798.926H2243.75V737.562H2240.34C2231.63 753.85 2221.03 767.013 2208.53 777.051C2196.22 787.089 2182.11 794.38 2166.2 798.926C2150.48 803.471 2133.15 805.744 2114.21 805.744ZM2165.34 706.88C2177.28 706.88 2188.45 704.418 2198.87 699.494C2209.47 694.57 2218.09 687.467 2224.72 678.187C2231.35 668.907 2234.66 657.638 2234.66 644.38V608.017C2230.5 609.721 2226.04 611.331 2221.31 612.846C2216.76 614.361 2211.84 615.782 2206.54 617.107C2201.42 618.433 2195.93 619.664 2190.06 620.801C2184.38 621.937 2178.41 622.979 2172.16 623.926C2160.04 625.82 2150.1 628.945 2142.33 633.301C2134.76 637.467 2129.08 642.676 2125.29 648.926C2121.69 654.986 2119.89 661.804 2119.89 669.38C2119.89 681.501 2124.15 690.782 2132.67 697.221C2141.2 703.661 2152.09 706.88 2165.34 706.88Z" fill="white"/>
<path d="M2465.27 798.926V362.562H2617.55V445.517H2622.09C2630.05 414.835 2642.64 392.392 2659.88 378.187C2677.3 363.982 2697.66 356.88 2720.95 356.88C2727.77 356.88 2734.5 357.448 2741.13 358.585C2747.94 359.532 2754.48 360.952 2760.73 362.846V496.653C2752.96 494.001 2743.4 492.013 2732.03 490.687C2720.67 489.361 2710.92 488.698 2702.77 488.698C2687.43 488.698 2673.61 492.202 2661.3 499.21C2649.17 506.028 2639.61 515.687 2632.6 528.187C2625.59 540.498 2622.09 554.986 2622.09 571.653V798.926H2465.27Z" fill="white"/>
<path d="M2812.15 798.926V362.562H2964.42V445.517H2968.97C2976.92 414.835 2989.52 392.392 3006.75 378.187C3024.17 363.982 3044.53 356.88 3067.83 356.88C3074.65 356.88 3081.37 357.448 3088 358.585C3094.82 359.532 3101.35 360.952 3107.6 362.846V496.653C3099.84 494.001 3090.27 492.013 3078.91 490.687C3067.55 489.361 3057.79 488.698 3049.65 488.698C3034.31 488.698 3020.48 492.202 3008.17 499.21C2996.05 506.028 2986.49 515.687 2979.48 528.187C2972.47 540.498 2968.97 554.986 2968.97 571.653V798.926H2812.15Z" fill="white"/>
<path d="M3159.02 798.926V362.562H3315.84V798.926H3159.02ZM3237.43 317.107C3216.22 317.107 3198.04 310.1 3182.89 296.085C3167.74 282.07 3160.16 265.214 3160.16 245.517C3160.16 225.82 3167.74 208.964 3182.89 194.948C3198.04 180.933 3216.22 173.926 3237.43 173.926C3258.83 173.926 3277.02 180.933 3291.98 194.948C3307.13 208.964 3314.7 225.82 3314.7 245.517C3314.7 265.214 3307.13 282.07 3291.98 296.085C3277.02 310.1 3258.83 317.107 3237.43 317.107Z" fill="white"/>
<path d="M3552.56 217.107V798.926H3395.74V217.107H3552.56Z" fill="#007AFF"/>
<path d="M3727.92 962.562C3709.92 962.562 3692.78 961.142 3676.49 958.301C3660.21 955.649 3645.91 951.956 3633.6 947.221L3667.69 835.857C3680.57 840.403 3692.31 843.339 3702.92 844.664C3713.71 845.99 3722.9 845.232 3730.47 842.392C3738.24 839.551 3743.82 834.153 3747.23 826.198L3750.64 818.244L3597.23 362.562H3760.87L3831.32 664.835H3835.87L3907.46 362.562H4072.23L3913.14 835.289C3905.19 859.342 3893.63 880.933 3878.48 900.062C3863.52 919.38 3843.82 934.626 3819.39 945.801C3794.96 956.975 3764.47 962.562 3727.92 962.562Z" fill="#007AFF"/>
</svg>
